<mxfile host="Electron" agent="Mozilla/5.0 (Windows NT 10.0; Win64; x64) AppleWebKit/537.36 (KHTML, like Gecko) draw.io/24.7.8 Chrome/128.0.6613.36 Electron/32.0.1 Safari/537.36" version="24.7.8" pages="4">
  <diagram name="Page-1" id="-H_mtQnk-PTXWXPvYvuk">
    <mxGraphModel dx="954" dy="674" grid="1" gridSize="10" guides="1" tooltips="1" connect="1" arrows="1" fold="1" page="1" pageScale="1" pageWidth="1169" pageHeight="827" math="0" shadow="0">
      <root>
        <mxCell id="0" />
        <mxCell id="1" parent="0" />
        <mxCell id="zA23MoTUsTF4_91t8viU-2" value="MongoDB" style="shape=cylinder3;whiteSpace=wrap;html=1;boundedLbl=1;backgroundOutline=1;size=15;" vertex="1" parent="1">
          <mxGeometry x="560" y="280" width="60" height="80" as="geometry" />
        </mxCell>
        <mxCell id="zA23MoTUsTF4_91t8viU-3" value="pymongo-api" style="rounded=1;whiteSpace=wrap;html=1;" vertex="1" parent="1">
          <mxGeometry x="360" y="290" width="120" height="60" as="geometry" />
        </mxCell>
        <mxCell id="zA23MoTUsTF4_91t8viU-4" style="edgeStyle=orthogonalEdgeStyle;rounded=0;orthogonalLoop=1;jettySize=auto;html=1;exitX=1;exitY=0.5;exitDx=0;exitDy=0;entryX=0;entryY=0.5;entryDx=0;entryDy=0;entryPerimeter=0;" edge="1" parent="1" source="zA23MoTUsTF4_91t8viU-3" target="zA23MoTUsTF4_91t8viU-2">
          <mxGeometry relative="1" as="geometry" />
        </mxCell>
      </root>
    </mxGraphModel>
  </diagram>
  <diagram id="8X5Qg4FPCoWiWQrOqQFr" name="Шардирование">
    <mxGraphModel dx="1434" dy="956" grid="1" gridSize="10" guides="1" tooltips="1" connect="1" arrows="1" fold="1" page="1" pageScale="1" pageWidth="827" pageHeight="1169" math="0" shadow="0">
      <root>
        <mxCell id="0" />
        <mxCell id="1" parent="0" />
        <mxCell id="9lnCuXLPxKsrExZUk17p-26" style="edgeStyle=orthogonalEdgeStyle;rounded=0;orthogonalLoop=1;jettySize=auto;html=1;exitX=1;exitY=0.5;exitDx=0;exitDy=0;entryX=0.5;entryY=0;entryDx=0;entryDy=0;" edge="1" parent="1" source="9lnCuXLPxKsrExZUk17p-2" target="9lnCuXLPxKsrExZUk17p-15">
          <mxGeometry relative="1" as="geometry" />
        </mxCell>
        <mxCell id="9lnCuXLPxKsrExZUk17p-2" value="pymongo-api" style="rounded=1;whiteSpace=wrap;html=1;" vertex="1" parent="1">
          <mxGeometry x="20" y="290" width="120" height="60" as="geometry" />
        </mxCell>
        <mxCell id="9lnCuXLPxKsrExZUk17p-13" value="" style="group" vertex="1" connectable="0" parent="1">
          <mxGeometry x="340" y="570" width="60" height="110" as="geometry" />
        </mxCell>
        <mxCell id="9lnCuXLPxKsrExZUk17p-1" value="shard2" style="shape=cylinder3;whiteSpace=wrap;html=1;boundedLbl=1;backgroundOutline=1;size=15;" vertex="1" parent="9lnCuXLPxKsrExZUk17p-13">
          <mxGeometry width="60" height="80" as="geometry" />
        </mxCell>
        <mxCell id="9lnCuXLPxKsrExZUk17p-20" style="edgeStyle=orthogonalEdgeStyle;rounded=0;orthogonalLoop=1;jettySize=auto;html=1;exitX=0;exitY=0.5;exitDx=0;exitDy=0;entryX=0.5;entryY=0;entryDx=0;entryDy=0;" edge="1" parent="1" source="9lnCuXLPxKsrExZUk17p-15" target="9lnCuXLPxKsrExZUk17p-16">
          <mxGeometry relative="1" as="geometry" />
        </mxCell>
        <mxCell id="9lnCuXLPxKsrExZUk17p-21" style="edgeStyle=orthogonalEdgeStyle;rounded=0;orthogonalLoop=1;jettySize=auto;html=1;exitX=1;exitY=0.5;exitDx=0;exitDy=0;entryX=0.5;entryY=0;entryDx=0;entryDy=0;" edge="1" parent="1" source="9lnCuXLPxKsrExZUk17p-15" target="9lnCuXLPxKsrExZUk17p-17">
          <mxGeometry relative="1" as="geometry" />
        </mxCell>
        <mxCell id="9lnCuXLPxKsrExZUk17p-27" style="edgeStyle=orthogonalEdgeStyle;rounded=0;orthogonalLoop=1;jettySize=auto;html=1;exitX=1;exitY=0.5;exitDx=0;exitDy=0;entryX=0;entryY=0.5;entryDx=0;entryDy=0;" edge="1" parent="1" source="9lnCuXLPxKsrExZUk17p-15" target="9lnCuXLPxKsrExZUk17p-25">
          <mxGeometry relative="1" as="geometry" />
        </mxCell>
        <mxCell id="9lnCuXLPxKsrExZUk17p-15" value="mangos_router" style="rounded=1;whiteSpace=wrap;html=1;fillColor=#dae8fc;strokeColor=#6c8ebf;" vertex="1" parent="1">
          <mxGeometry x="220" y="400" width="120" height="60" as="geometry" />
        </mxCell>
        <mxCell id="9lnCuXLPxKsrExZUk17p-16" value="Роутер" style="rounded=1;whiteSpace=wrap;html=1;fillColor=#dae8fc;strokeColor=#6c8ebf;" vertex="1" parent="1">
          <mxGeometry x="125" y="500" width="90" height="30" as="geometry" />
        </mxCell>
        <mxCell id="9lnCuXLPxKsrExZUk17p-17" value="Роутер" style="rounded=1;whiteSpace=wrap;html=1;fillColor=#dae8fc;strokeColor=#6c8ebf;" vertex="1" parent="1">
          <mxGeometry x="325" y="500" width="90" height="30" as="geometry" />
        </mxCell>
        <mxCell id="9lnCuXLPxKsrExZUk17p-19" style="edgeStyle=orthogonalEdgeStyle;rounded=0;orthogonalLoop=1;jettySize=auto;html=1;exitX=0.5;exitY=1;exitDx=0;exitDy=0;entryX=0.5;entryY=0;entryDx=0;entryDy=0;entryPerimeter=0;" edge="1" parent="1" source="9lnCuXLPxKsrExZUk17p-16" target="9lnCuXLPxKsrExZUk17p-7">
          <mxGeometry relative="1" as="geometry" />
        </mxCell>
        <mxCell id="9lnCuXLPxKsrExZUk17p-23" style="edgeStyle=orthogonalEdgeStyle;rounded=0;orthogonalLoop=1;jettySize=auto;html=1;exitX=0.5;exitY=1;exitDx=0;exitDy=0;entryX=0.5;entryY=0;entryDx=0;entryDy=0;entryPerimeter=0;" edge="1" parent="1" source="9lnCuXLPxKsrExZUk17p-17" target="9lnCuXLPxKsrExZUk17p-1">
          <mxGeometry relative="1" as="geometry" />
        </mxCell>
        <mxCell id="9lnCuXLPxKsrExZUk17p-25" value="ConfigSrv" style="rounded=1;whiteSpace=wrap;html=1;fillColor=#f8cecc;strokeColor=#b85450;fontColor=#000000;" vertex="1" parent="1">
          <mxGeometry x="510" y="400" width="140" height="60" as="geometry" />
        </mxCell>
        <mxCell id="9lnCuXLPxKsrExZUk17p-28" style="edgeStyle=orthogonalEdgeStyle;rounded=0;orthogonalLoop=1;jettySize=auto;html=1;exitX=0.5;exitY=0;exitDx=0;exitDy=0;entryX=0.5;entryY=1;entryDx=0;entryDy=0;" edge="1" parent="1" target="9lnCuXLPxKsrExZUk17p-25">
          <mxGeometry relative="1" as="geometry">
            <mxPoint x="370" y="650" as="sourcePoint" />
            <Array as="points">
              <mxPoint x="370" y="700" />
              <mxPoint x="580" y="700" />
            </Array>
          </mxGeometry>
        </mxCell>
        <mxCell id="9lnCuXLPxKsrExZUk17p-29" style="edgeStyle=orthogonalEdgeStyle;rounded=0;orthogonalLoop=1;jettySize=auto;html=1;exitX=0.5;exitY=1;exitDx=0;exitDy=0;exitPerimeter=0;entryX=0.5;entryY=1;entryDx=0;entryDy=0;" edge="1" parent="1" source="9lnCuXLPxKsrExZUk17p-7" target="9lnCuXLPxKsrExZUk17p-25">
          <mxGeometry relative="1" as="geometry">
            <Array as="points">
              <mxPoint x="170" y="700" />
              <mxPoint x="580" y="700" />
            </Array>
          </mxGeometry>
        </mxCell>
        <mxCell id="9lnCuXLPxKsrExZUk17p-7" value="shard1" style="shape=cylinder3;whiteSpace=wrap;html=1;boundedLbl=1;backgroundOutline=1;size=15;" vertex="1" parent="1">
          <mxGeometry x="140" y="570" width="60" height="80" as="geometry" />
        </mxCell>
        <mxCell id="9lnCuXLPxKsrExZUk17p-31" value="" style="endArrow=none;dashed=1;html=1;dashPattern=1 3;strokeWidth=2;rounded=0;entryX=0;entryY=0.5;entryDx=0;entryDy=0;exitX=1;exitY=0.5;exitDx=0;exitDy=0;" edge="1" parent="1" source="9lnCuXLPxKsrExZUk17p-16" target="9lnCuXLPxKsrExZUk17p-17">
          <mxGeometry width="50" height="50" relative="1" as="geometry">
            <mxPoint x="240" y="600" as="sourcePoint" />
            <mxPoint x="290" y="550" as="targetPoint" />
          </mxGeometry>
        </mxCell>
      </root>
    </mxGraphModel>
  </diagram>
  <diagram id="Q3W85uDIfVWppae52gYE" name="Репликация">
    <mxGraphModel dx="1195" dy="797" grid="1" gridSize="10" guides="1" tooltips="1" connect="1" arrows="1" fold="1" page="1" pageScale="1" pageWidth="827" pageHeight="1169" math="0" shadow="0">
      <root>
        <mxCell id="0" />
        <mxCell id="1" parent="0" />
        <mxCell id="QRgZBhNrLQ-z-AfHh-54-17" style="edgeStyle=orthogonalEdgeStyle;rounded=0;orthogonalLoop=1;jettySize=auto;html=1;exitX=0.5;exitY=1;exitDx=0;exitDy=0;" edge="1" parent="1" source="QRgZBhNrLQ-z-AfHh-54-9">
          <mxGeometry relative="1" as="geometry">
            <mxPoint x="700" y="380" as="targetPoint" />
            <Array as="points">
              <mxPoint x="180" y="750" />
              <mxPoint x="730" y="750" />
              <mxPoint x="730" y="480" />
              <mxPoint x="700" y="480" />
            </Array>
          </mxGeometry>
        </mxCell>
        <mxCell id="QRgZBhNrLQ-z-AfHh-54-9" value="" style="rounded=0;whiteSpace=wrap;html=1;dashed=1;dashPattern=12 12;" vertex="1" parent="1">
          <mxGeometry x="50" y="585" width="260" height="145" as="geometry" />
        </mxCell>
        <mxCell id="7MdVE-RVvPqnIDCZ8MqA-1" style="edgeStyle=orthogonalEdgeStyle;rounded=0;orthogonalLoop=1;jettySize=auto;html=1;exitX=1;exitY=0.5;exitDx=0;exitDy=0;entryX=0.5;entryY=0;entryDx=0;entryDy=0;" edge="1" parent="1" source="7MdVE-RVvPqnIDCZ8MqA-2" target="7MdVE-RVvPqnIDCZ8MqA-8">
          <mxGeometry relative="1" as="geometry" />
        </mxCell>
        <mxCell id="7MdVE-RVvPqnIDCZ8MqA-2" value="pymongo-api" style="rounded=1;whiteSpace=wrap;html=1;" vertex="1" parent="1">
          <mxGeometry x="20" y="290" width="120" height="60" as="geometry" />
        </mxCell>
        <mxCell id="7MdVE-RVvPqnIDCZ8MqA-5" style="edgeStyle=orthogonalEdgeStyle;rounded=0;orthogonalLoop=1;jettySize=auto;html=1;exitX=0;exitY=0.5;exitDx=0;exitDy=0;entryX=0.5;entryY=0;entryDx=0;entryDy=0;" edge="1" parent="1" source="7MdVE-RVvPqnIDCZ8MqA-8" target="7MdVE-RVvPqnIDCZ8MqA-9">
          <mxGeometry relative="1" as="geometry" />
        </mxCell>
        <mxCell id="7MdVE-RVvPqnIDCZ8MqA-6" style="edgeStyle=orthogonalEdgeStyle;rounded=0;orthogonalLoop=1;jettySize=auto;html=1;exitX=1;exitY=0.5;exitDx=0;exitDy=0;entryX=0.5;entryY=0;entryDx=0;entryDy=0;" edge="1" parent="1" source="7MdVE-RVvPqnIDCZ8MqA-8" target="7MdVE-RVvPqnIDCZ8MqA-10">
          <mxGeometry relative="1" as="geometry" />
        </mxCell>
        <mxCell id="7MdVE-RVvPqnIDCZ8MqA-7" style="edgeStyle=orthogonalEdgeStyle;rounded=0;orthogonalLoop=1;jettySize=auto;html=1;exitX=1;exitY=0.5;exitDx=0;exitDy=0;entryX=0;entryY=0.5;entryDx=0;entryDy=0;" edge="1" parent="1" source="7MdVE-RVvPqnIDCZ8MqA-8" target="7MdVE-RVvPqnIDCZ8MqA-13">
          <mxGeometry relative="1" as="geometry" />
        </mxCell>
        <mxCell id="7MdVE-RVvPqnIDCZ8MqA-8" value="mangos_router" style="rounded=1;whiteSpace=wrap;html=1;fillColor=#dae8fc;strokeColor=#6c8ebf;" vertex="1" parent="1">
          <mxGeometry x="311.25" y="400" width="120" height="60" as="geometry" />
        </mxCell>
        <mxCell id="QRgZBhNrLQ-z-AfHh-54-12" style="edgeStyle=orthogonalEdgeStyle;rounded=0;orthogonalLoop=1;jettySize=auto;html=1;exitX=0.5;exitY=1;exitDx=0;exitDy=0;entryX=0.5;entryY=0;entryDx=0;entryDy=0;" edge="1" parent="1" source="7MdVE-RVvPqnIDCZ8MqA-9" target="QRgZBhNrLQ-z-AfHh-54-9">
          <mxGeometry relative="1" as="geometry" />
        </mxCell>
        <mxCell id="7MdVE-RVvPqnIDCZ8MqA-9" value="Роутер" style="rounded=1;whiteSpace=wrap;html=1;fillColor=#dae8fc;strokeColor=#6c8ebf;" vertex="1" parent="1">
          <mxGeometry x="135" y="500" width="90" height="30" as="geometry" />
        </mxCell>
        <mxCell id="QRgZBhNrLQ-z-AfHh-54-13" style="edgeStyle=orthogonalEdgeStyle;rounded=0;orthogonalLoop=1;jettySize=auto;html=1;exitX=0.5;exitY=1;exitDx=0;exitDy=0;entryX=0.5;entryY=0;entryDx=0;entryDy=0;" edge="1" parent="1" source="7MdVE-RVvPqnIDCZ8MqA-10" target="QRgZBhNrLQ-z-AfHh-54-10">
          <mxGeometry relative="1" as="geometry" />
        </mxCell>
        <mxCell id="7MdVE-RVvPqnIDCZ8MqA-10" value="Роутер" style="rounded=1;whiteSpace=wrap;html=1;fillColor=#dae8fc;strokeColor=#6c8ebf;" vertex="1" parent="1">
          <mxGeometry x="517.5" y="500" width="90" height="30" as="geometry" />
        </mxCell>
        <mxCell id="7MdVE-RVvPqnIDCZ8MqA-13" value="ConfigSrv" style="rounded=1;whiteSpace=wrap;html=1;fillColor=#f8cecc;strokeColor=#b85450;fontColor=#000000;" vertex="1" parent="1">
          <mxGeometry x="630" y="320" width="140" height="60" as="geometry" />
        </mxCell>
        <mxCell id="7MdVE-RVvPqnIDCZ8MqA-17" value="" style="endArrow=none;dashed=1;html=1;dashPattern=1 3;strokeWidth=2;rounded=0;entryX=0;entryY=0.5;entryDx=0;entryDy=0;exitX=1;exitY=0.5;exitDx=0;exitDy=0;" edge="1" parent="1" source="7MdVE-RVvPqnIDCZ8MqA-9" target="7MdVE-RVvPqnIDCZ8MqA-10">
          <mxGeometry width="50" height="50" relative="1" as="geometry">
            <mxPoint x="240" y="600" as="sourcePoint" />
            <mxPoint x="290" y="550" as="targetPoint" />
          </mxGeometry>
        </mxCell>
        <mxCell id="QRgZBhNrLQ-z-AfHh-54-8" value="" style="group" vertex="1" connectable="0" parent="1">
          <mxGeometry x="80" y="620" width="200" height="80" as="geometry" />
        </mxCell>
        <mxCell id="7MdVE-RVvPqnIDCZ8MqA-16" value="shard1_2" style="shape=cylinder3;whiteSpace=wrap;html=1;boundedLbl=1;backgroundOutline=1;size=15;" vertex="1" parent="QRgZBhNrLQ-z-AfHh-54-8">
          <mxGeometry x="70" width="60" height="80" as="geometry" />
        </mxCell>
        <mxCell id="QRgZBhNrLQ-z-AfHh-54-5" value="shard1_1" style="shape=cylinder3;whiteSpace=wrap;html=1;boundedLbl=1;backgroundOutline=1;size=15;" vertex="1" parent="QRgZBhNrLQ-z-AfHh-54-8">
          <mxGeometry width="60" height="80" as="geometry" />
        </mxCell>
        <mxCell id="QRgZBhNrLQ-z-AfHh-54-6" value="shard1_3" style="shape=cylinder3;whiteSpace=wrap;html=1;boundedLbl=1;backgroundOutline=1;size=15;" vertex="1" parent="QRgZBhNrLQ-z-AfHh-54-8">
          <mxGeometry x="140" width="60" height="80" as="geometry" />
        </mxCell>
        <mxCell id="QRgZBhNrLQ-z-AfHh-54-16" style="edgeStyle=orthogonalEdgeStyle;rounded=0;orthogonalLoop=1;jettySize=auto;html=1;exitX=0.5;exitY=1;exitDx=0;exitDy=0;entryX=0.5;entryY=1;entryDx=0;entryDy=0;" edge="1" parent="1" source="QRgZBhNrLQ-z-AfHh-54-10" target="7MdVE-RVvPqnIDCZ8MqA-13">
          <mxGeometry relative="1" as="geometry">
            <Array as="points">
              <mxPoint x="563" y="750" />
              <mxPoint x="730" y="750" />
              <mxPoint x="730" y="480" />
              <mxPoint x="700" y="480" />
            </Array>
          </mxGeometry>
        </mxCell>
        <mxCell id="QRgZBhNrLQ-z-AfHh-54-10" value="" style="rounded=0;whiteSpace=wrap;html=1;dashed=1;dashPattern=12 12;" vertex="1" parent="1">
          <mxGeometry x="432.5" y="585" width="260" height="145" as="geometry" />
        </mxCell>
        <mxCell id="QRgZBhNrLQ-z-AfHh-54-11" value="" style="group" vertex="1" connectable="0" parent="1">
          <mxGeometry x="460" y="620" width="205" height="80" as="geometry" />
        </mxCell>
        <mxCell id="QRgZBhNrLQ-z-AfHh-54-2" value="shard2_2" style="shape=cylinder3;whiteSpace=wrap;html=1;boundedLbl=1;backgroundOutline=1;size=15;" vertex="1" parent="QRgZBhNrLQ-z-AfHh-54-11">
          <mxGeometry x="75" width="60" height="80" as="geometry" />
        </mxCell>
        <mxCell id="7MdVE-RVvPqnIDCZ8MqA-4" value="shard2_1" style="shape=cylinder3;whiteSpace=wrap;html=1;boundedLbl=1;backgroundOutline=1;size=15;" vertex="1" parent="QRgZBhNrLQ-z-AfHh-54-11">
          <mxGeometry width="60" height="80" as="geometry" />
        </mxCell>
        <mxCell id="QRgZBhNrLQ-z-AfHh-54-4" value="shard2_3" style="shape=cylinder3;whiteSpace=wrap;html=1;boundedLbl=1;backgroundOutline=1;size=15;" vertex="1" parent="QRgZBhNrLQ-z-AfHh-54-11">
          <mxGeometry x="145" width="60" height="80" as="geometry" />
        </mxCell>
        <mxCell id="QRgZBhNrLQ-z-AfHh-54-14" value="shard1" style="text;html=1;align=center;verticalAlign=middle;whiteSpace=wrap;rounded=0;" vertex="1" parent="1">
          <mxGeometry x="50" y="585" width="60" height="30" as="geometry" />
        </mxCell>
        <mxCell id="QRgZBhNrLQ-z-AfHh-54-15" value="shard2" style="text;html=1;align=center;verticalAlign=middle;whiteSpace=wrap;rounded=0;" vertex="1" parent="1">
          <mxGeometry x="430" y="585" width="60" height="30" as="geometry" />
        </mxCell>
      </root>
    </mxGraphModel>
  </diagram>
  <diagram id="82QEujgHOkYT3Oila1AS" name="Кеширование">
    <mxGraphModel dx="1434" dy="956" grid="1" gridSize="10" guides="1" tooltips="1" connect="1" arrows="1" fold="1" page="1" pageScale="1" pageWidth="827" pageHeight="1169" math="0" shadow="0">
      <root>
        <mxCell id="0" />
        <mxCell id="1" parent="0" />
        <mxCell id="XzBwqKoT9uDYfQcVqPbC-1" style="edgeStyle=orthogonalEdgeStyle;rounded=0;orthogonalLoop=1;jettySize=auto;html=1;exitX=0.5;exitY=1;exitDx=0;exitDy=0;" edge="1" parent="1" source="XzBwqKoT9uDYfQcVqPbC-2">
          <mxGeometry relative="1" as="geometry">
            <mxPoint x="700" y="380" as="targetPoint" />
            <Array as="points">
              <mxPoint x="180" y="750" />
              <mxPoint x="730" y="750" />
              <mxPoint x="730" y="480" />
              <mxPoint x="700" y="480" />
            </Array>
          </mxGeometry>
        </mxCell>
        <mxCell id="XzBwqKoT9uDYfQcVqPbC-2" value="" style="rounded=0;whiteSpace=wrap;html=1;dashed=1;dashPattern=12 12;" vertex="1" parent="1">
          <mxGeometry x="50" y="585" width="260" height="145" as="geometry" />
        </mxCell>
        <mxCell id="ZeXYotjElmN_iGXoWIC6-3" style="edgeStyle=orthogonalEdgeStyle;rounded=0;orthogonalLoop=1;jettySize=auto;html=1;exitX=0;exitY=0.5;exitDx=0;exitDy=0;entryX=0;entryY=0.5;entryDx=0;entryDy=0;" edge="1" parent="1" source="XzBwqKoT9uDYfQcVqPbC-4" target="XzBwqKoT9uDYfQcVqPbC-8">
          <mxGeometry relative="1" as="geometry">
            <Array as="points">
              <mxPoint x="260" y="60" />
              <mxPoint x="260" y="350" />
            </Array>
          </mxGeometry>
        </mxCell>
        <mxCell id="ZeXYotjElmN_iGXoWIC6-4" style="edgeStyle=orthogonalEdgeStyle;rounded=0;orthogonalLoop=1;jettySize=auto;html=1;exitX=0;exitY=0.5;exitDx=0;exitDy=0;entryX=0;entryY=0.5;entryDx=0;entryDy=0;" edge="1" parent="1" source="XzBwqKoT9uDYfQcVqPbC-4" target="XzBwqKoT9uDYfQcVqPbC-27">
          <mxGeometry relative="1" as="geometry">
            <Array as="points">
              <mxPoint x="260" y="60" />
              <mxPoint x="260" y="210" />
            </Array>
          </mxGeometry>
        </mxCell>
        <mxCell id="XzBwqKoT9uDYfQcVqPbC-4" value="pymongo-api" style="rounded=1;whiteSpace=wrap;html=1;" vertex="1" parent="1">
          <mxGeometry x="313.75" y="30" width="120" height="60" as="geometry" />
        </mxCell>
        <mxCell id="OBkmtt5DZCgf_v0BFWHi-1" style="edgeStyle=orthogonalEdgeStyle;rounded=0;orthogonalLoop=1;jettySize=auto;html=1;exitX=0.5;exitY=1;exitDx=0;exitDy=0;entryX=0.5;entryY=0;entryDx=0;entryDy=0;" edge="1" parent="1" source="XzBwqKoT9uDYfQcVqPbC-8" target="XzBwqKoT9uDYfQcVqPbC-10">
          <mxGeometry relative="1" as="geometry" />
        </mxCell>
        <mxCell id="OBkmtt5DZCgf_v0BFWHi-2" style="edgeStyle=orthogonalEdgeStyle;rounded=0;orthogonalLoop=1;jettySize=auto;html=1;exitX=0.5;exitY=1;exitDx=0;exitDy=0;entryX=0.5;entryY=0;entryDx=0;entryDy=0;" edge="1" parent="1" source="XzBwqKoT9uDYfQcVqPbC-8" target="XzBwqKoT9uDYfQcVqPbC-12">
          <mxGeometry relative="1" as="geometry" />
        </mxCell>
        <mxCell id="ZeXYotjElmN_iGXoWIC6-1" style="edgeStyle=orthogonalEdgeStyle;rounded=0;orthogonalLoop=1;jettySize=auto;html=1;exitX=0.5;exitY=1;exitDx=0;exitDy=0;entryX=0;entryY=0.5;entryDx=0;entryDy=0;" edge="1" parent="1" source="XzBwqKoT9uDYfQcVqPbC-8" target="XzBwqKoT9uDYfQcVqPbC-13">
          <mxGeometry relative="1" as="geometry">
            <Array as="points">
              <mxPoint x="370" y="440" />
              <mxPoint x="560" y="440" />
              <mxPoint x="560" y="350" />
            </Array>
          </mxGeometry>
        </mxCell>
        <mxCell id="ZeXYotjElmN_iGXoWIC6-6" style="edgeStyle=orthogonalEdgeStyle;rounded=0;orthogonalLoop=1;jettySize=auto;html=1;exitX=1;exitY=0.5;exitDx=0;exitDy=0;entryX=1;entryY=0.5;entryDx=0;entryDy=0;" edge="1" parent="1" source="XzBwqKoT9uDYfQcVqPbC-8" target="XzBwqKoT9uDYfQcVqPbC-4">
          <mxGeometry relative="1" as="geometry">
            <Array as="points">
              <mxPoint x="490" y="350" />
              <mxPoint x="490" y="60" />
            </Array>
          </mxGeometry>
        </mxCell>
        <mxCell id="ZeXYotjElmN_iGXoWIC6-7" style="edgeStyle=orthogonalEdgeStyle;rounded=0;orthogonalLoop=1;jettySize=auto;html=1;exitX=1;exitY=0.5;exitDx=0;exitDy=0;entryX=1;entryY=0.5;entryDx=0;entryDy=0;" edge="1" parent="1" source="XzBwqKoT9uDYfQcVqPbC-8" target="XzBwqKoT9uDYfQcVqPbC-27">
          <mxGeometry relative="1" as="geometry">
            <Array as="points">
              <mxPoint x="490" y="350" />
              <mxPoint x="490" y="210" />
            </Array>
          </mxGeometry>
        </mxCell>
        <mxCell id="XzBwqKoT9uDYfQcVqPbC-8" value="mangos_router" style="rounded=1;whiteSpace=wrap;html=1;fillColor=#dae8fc;strokeColor=#6c8ebf;" vertex="1" parent="1">
          <mxGeometry x="310" y="320" width="120" height="60" as="geometry" />
        </mxCell>
        <mxCell id="XzBwqKoT9uDYfQcVqPbC-9" style="edgeStyle=orthogonalEdgeStyle;rounded=0;orthogonalLoop=1;jettySize=auto;html=1;exitX=0.5;exitY=1;exitDx=0;exitDy=0;entryX=0.5;entryY=0;entryDx=0;entryDy=0;" edge="1" parent="1" source="XzBwqKoT9uDYfQcVqPbC-10" target="XzBwqKoT9uDYfQcVqPbC-2">
          <mxGeometry relative="1" as="geometry" />
        </mxCell>
        <mxCell id="XzBwqKoT9uDYfQcVqPbC-10" value="Роутер" style="rounded=1;whiteSpace=wrap;html=1;fillColor=#dae8fc;strokeColor=#6c8ebf;" vertex="1" parent="1">
          <mxGeometry x="135" y="500" width="90" height="30" as="geometry" />
        </mxCell>
        <mxCell id="XzBwqKoT9uDYfQcVqPbC-11" style="edgeStyle=orthogonalEdgeStyle;rounded=0;orthogonalLoop=1;jettySize=auto;html=1;exitX=0.5;exitY=1;exitDx=0;exitDy=0;entryX=0.5;entryY=0;entryDx=0;entryDy=0;" edge="1" parent="1" source="XzBwqKoT9uDYfQcVqPbC-12" target="XzBwqKoT9uDYfQcVqPbC-20">
          <mxGeometry relative="1" as="geometry" />
        </mxCell>
        <mxCell id="XzBwqKoT9uDYfQcVqPbC-12" value="Роутер" style="rounded=1;whiteSpace=wrap;html=1;fillColor=#dae8fc;strokeColor=#6c8ebf;" vertex="1" parent="1">
          <mxGeometry x="517.5" y="500" width="90" height="30" as="geometry" />
        </mxCell>
        <mxCell id="XzBwqKoT9uDYfQcVqPbC-13" value="ConfigSrv" style="rounded=1;whiteSpace=wrap;html=1;fillColor=#f8cecc;strokeColor=#b85450;fontColor=#000000;" vertex="1" parent="1">
          <mxGeometry x="630" y="320" width="140" height="60" as="geometry" />
        </mxCell>
        <mxCell id="XzBwqKoT9uDYfQcVqPbC-14" value="" style="endArrow=none;dashed=1;html=1;dashPattern=1 3;strokeWidth=2;rounded=0;entryX=0;entryY=0.5;entryDx=0;entryDy=0;exitX=1;exitY=0.5;exitDx=0;exitDy=0;" edge="1" parent="1" source="XzBwqKoT9uDYfQcVqPbC-10" target="XzBwqKoT9uDYfQcVqPbC-12">
          <mxGeometry width="50" height="50" relative="1" as="geometry">
            <mxPoint x="240" y="600" as="sourcePoint" />
            <mxPoint x="290" y="550" as="targetPoint" />
          </mxGeometry>
        </mxCell>
        <mxCell id="XzBwqKoT9uDYfQcVqPbC-15" value="" style="group" vertex="1" connectable="0" parent="1">
          <mxGeometry x="80" y="620" width="200" height="80" as="geometry" />
        </mxCell>
        <mxCell id="XzBwqKoT9uDYfQcVqPbC-16" value="shard1_2" style="shape=cylinder3;whiteSpace=wrap;html=1;boundedLbl=1;backgroundOutline=1;size=15;" vertex="1" parent="XzBwqKoT9uDYfQcVqPbC-15">
          <mxGeometry x="70" width="60" height="80" as="geometry" />
        </mxCell>
        <mxCell id="XzBwqKoT9uDYfQcVqPbC-17" value="shard1_1" style="shape=cylinder3;whiteSpace=wrap;html=1;boundedLbl=1;backgroundOutline=1;size=15;" vertex="1" parent="XzBwqKoT9uDYfQcVqPbC-15">
          <mxGeometry width="60" height="80" as="geometry" />
        </mxCell>
        <mxCell id="XzBwqKoT9uDYfQcVqPbC-18" value="shard1_3" style="shape=cylinder3;whiteSpace=wrap;html=1;boundedLbl=1;backgroundOutline=1;size=15;" vertex="1" parent="XzBwqKoT9uDYfQcVqPbC-15">
          <mxGeometry x="140" width="60" height="80" as="geometry" />
        </mxCell>
        <mxCell id="XzBwqKoT9uDYfQcVqPbC-19" style="edgeStyle=orthogonalEdgeStyle;rounded=0;orthogonalLoop=1;jettySize=auto;html=1;exitX=0.5;exitY=1;exitDx=0;exitDy=0;entryX=0.5;entryY=1;entryDx=0;entryDy=0;" edge="1" parent="1" source="XzBwqKoT9uDYfQcVqPbC-20" target="XzBwqKoT9uDYfQcVqPbC-13">
          <mxGeometry relative="1" as="geometry">
            <Array as="points">
              <mxPoint x="563" y="750" />
              <mxPoint x="730" y="750" />
              <mxPoint x="730" y="480" />
              <mxPoint x="700" y="480" />
            </Array>
          </mxGeometry>
        </mxCell>
        <mxCell id="XzBwqKoT9uDYfQcVqPbC-20" value="" style="rounded=0;whiteSpace=wrap;html=1;dashed=1;dashPattern=12 12;" vertex="1" parent="1">
          <mxGeometry x="432.5" y="585" width="260" height="145" as="geometry" />
        </mxCell>
        <mxCell id="XzBwqKoT9uDYfQcVqPbC-21" value="" style="group" vertex="1" connectable="0" parent="1">
          <mxGeometry x="460" y="620" width="205" height="80" as="geometry" />
        </mxCell>
        <mxCell id="XzBwqKoT9uDYfQcVqPbC-22" value="shard2_2" style="shape=cylinder3;whiteSpace=wrap;html=1;boundedLbl=1;backgroundOutline=1;size=15;" vertex="1" parent="XzBwqKoT9uDYfQcVqPbC-21">
          <mxGeometry x="75" width="60" height="80" as="geometry" />
        </mxCell>
        <mxCell id="XzBwqKoT9uDYfQcVqPbC-23" value="shard2_1" style="shape=cylinder3;whiteSpace=wrap;html=1;boundedLbl=1;backgroundOutline=1;size=15;" vertex="1" parent="XzBwqKoT9uDYfQcVqPbC-21">
          <mxGeometry width="60" height="80" as="geometry" />
        </mxCell>
        <mxCell id="XzBwqKoT9uDYfQcVqPbC-24" value="shard2_3" style="shape=cylinder3;whiteSpace=wrap;html=1;boundedLbl=1;backgroundOutline=1;size=15;" vertex="1" parent="XzBwqKoT9uDYfQcVqPbC-21">
          <mxGeometry x="145" width="60" height="80" as="geometry" />
        </mxCell>
        <mxCell id="XzBwqKoT9uDYfQcVqPbC-25" value="shard1" style="text;html=1;align=center;verticalAlign=middle;whiteSpace=wrap;rounded=0;" vertex="1" parent="1">
          <mxGeometry x="50" y="585" width="60" height="30" as="geometry" />
        </mxCell>
        <mxCell id="XzBwqKoT9uDYfQcVqPbC-26" value="shard2" style="text;html=1;align=center;verticalAlign=middle;whiteSpace=wrap;rounded=0;" vertex="1" parent="1">
          <mxGeometry x="430" y="585" width="60" height="30" as="geometry" />
        </mxCell>
        <mxCell id="XzBwqKoT9uDYfQcVqPbC-27" value="Redis" style="rounded=1;whiteSpace=wrap;html=1;fillColor=#fff2cc;strokeColor=#d6b656;" vertex="1" parent="1">
          <mxGeometry x="311.25" y="180" width="122.5" height="60" as="geometry" />
        </mxCell>
      </root>
    </mxGraphModel>
  </diagram>
</mxfile>
